<svg width="57" height="57" viewBox="0 0 57 57" fill="none" xmlns="http://www.w3.org/2000/svg">
<g clip-path="url(#clip0)">
<path d="M55.7526 50.4291H52.9526V32.6958C52.9522 32.1804 52.534 31.7628 52.0186 31.7632C51.7144 31.7634 51.4294 31.9118 51.2549 32.161L38.1882 50.8277C37.8928 51.2501 37.9958 51.8321 38.4182 52.1273C38.5749 52.2369 38.7614 52.2957 38.9526 52.2958H51.0859V55.0958C51.0859 55.6112 51.5038 56.0291 52.0193 56.0291C52.5347 56.0291 52.9526 55.6112 52.9526 55.0958V52.2958H55.7526C56.268 52.2958 56.6859 51.8779 56.6859 51.3625C56.6859 50.847 56.268 50.4291 55.7526 50.4291ZM51.0859 50.4291H40.7446L51.0859 35.6563V50.4291Z" fill="black"/>
<path d="M38.9525 54.1626H27.9028L38.176 42.0657C38.1993 42.0379 38.2211 42.009 38.2413 41.9789C40.174 39.1184 39.5302 35.2457 36.776 33.1645C33.4271 30.7582 28.7616 31.5225 26.3554 34.8714C25.443 36.1413 24.9523 37.6656 24.9525 39.2293C24.9525 39.7447 25.3704 40.1626 25.8858 40.1626C26.4013 40.1626 26.8192 39.7447 26.8192 39.2293C26.8188 36.1364 29.3259 33.629 32.4186 33.6287C33.5909 33.6286 34.7336 33.9963 35.6858 34.6802C37.6152 36.1585 38.0644 38.881 36.7125 40.9009L25.1746 54.4921C24.8411 54.8851 24.8894 55.4741 25.2824 55.8076C25.451 55.9506 25.6648 56.0292 25.8858 56.0293H38.9525C39.4679 56.0293 39.8858 55.6114 39.8858 55.0959C39.8858 54.5805 39.4679 54.1626 38.9525 54.1626Z" fill="black"/>
<path d="M25.9064 49.5137C25.9259 48.9986 25.524 48.5653 25.0089 48.5458C25.0088 48.5458 25.0087 48.5458 25.0086 48.5458C12.8321 48.0939 3.05903 38.3383 2.58525 26.1626H6.28591C6.80135 26.1626 7.21925 25.7447 7.21925 25.2293C7.21925 24.7139 6.80135 24.296 6.28591 24.296H2.58525C3.05226 12.1417 12.7982 2.39611 24.9526 1.92956V4.69596C24.9526 5.2114 25.3705 5.6293 25.8859 5.6293C26.4013 5.6293 26.8192 5.2114 26.8192 4.69596V1.92956C38.8072 2.3932 48.4826 11.8859 49.1744 23.8629L45.5344 20.2229C45.1637 19.8647 44.5729 19.875 44.2147 20.2458C43.8654 20.6074 43.8654 21.1808 44.2147 21.5426L49.4246 26.7525C49.5227 26.8713 49.6492 26.9633 49.7923 27.0204C49.8288 27.0313 49.8659 27.0404 49.9034 27.0474C49.9674 27.0705 50.0337 27.0865 50.1012 27.095C50.1106 27.095 50.119 27.095 50.1283 27.095C50.1376 27.095 50.146 27.095 50.1544 27.095C50.2255 27.0897 50.2957 27.0759 50.3635 27.054C50.4019 27.0493 50.4399 27.0422 50.4774 27.0325C50.6037 26.9876 50.7188 26.9156 50.8143 26.8216L56.0951 21.5426C56.4532 21.1719 56.443 20.5811 56.0723 20.2229C55.7106 19.8736 55.1372 19.8736 54.7754 20.2229L51.0448 23.9506C50.3781 10.5725 39.3469 0.0620802 25.9522 0.0423635C25.9288 0.0414302 25.9092 0.0292969 25.8859 0.0292969C25.8626 0.0292969 25.843 0.0414302 25.8196 0.0423635C11.9538 0.0613802 0.717996 11.2972 0.69898 25.163C0.69898 25.1864 0.685913 25.206 0.685913 25.2293C0.685913 25.2526 0.698046 25.2722 0.69898 25.2956C0.722196 38.8192 11.4252 49.9087 24.9395 50.4116H24.974C25.4756 50.4114 25.8874 50.0149 25.9064 49.5137Z" fill="black"/>
<path d="M38.4253 12.69C38.0608 12.3257 37.47 12.3257 37.1056 12.69L27.0759 22.7187C26.3182 22.3808 25.4526 22.3808 24.695 22.7187L19.9462 17.9699C19.5754 17.6118 18.9845 17.6221 18.6265 17.9929C18.2772 18.3545 18.2772 18.9279 18.6265 19.2896L23.3659 24.0291C22.7005 25.4221 23.2903 27.0909 24.6835 27.7562C25.7527 28.267 27.0279 28.048 27.8655 27.2099C28.7078 26.3748 28.9246 25.0961 28.405 24.03L38.4253 14.0097C38.7896 13.6453 38.7896 13.0545 38.4253 12.69ZM26.546 25.889C26.5459 25.8891 26.5459 25.8891 26.5458 25.8892C26.1767 26.2421 25.5952 26.2421 25.2261 25.8892C24.8615 25.5247 24.8615 24.9338 25.2258 24.5692C25.5903 24.2047 26.1812 24.2047 26.5458 24.569C26.9104 24.9335 26.9104 25.5245 26.546 25.889Z" fill="black"/>
</g>
<defs>
<clipPath id="clip0">
<rect width="56" height="56" fill="white" transform="translate(0.685913 0.0292969)"/>
</clipPath>
</defs>
</svg>
