<svg width="24" height="25" viewBox="0 0 24 25" fill="none" xmlns="http://www.w3.org/2000/svg">
<path d="M19.851 12.4999L12.342 4.99087C12.0416 4.69051 11.6244 4.50696 11.1655 4.50696H5.32517C4.4074 4.50696 3.65649 5.25786 3.65649 6.17563V12.016C3.65649 12.4749 3.84005 12.8921 4.14875 13.2008L11.6578 20.7098C11.9582 21.0102 12.3753 21.1937 12.8342 21.1937C13.2931 21.1937 13.7103 21.0102 14.0106 20.7015L19.851 14.8611C20.1597 14.5607 20.3433 14.1436 20.3433 13.6847C20.3433 13.2258 20.1514 12.8003 19.851 12.4999ZM6.57668 8.67865C5.88418 8.67865 5.32517 8.11964 5.32517 7.42714C5.32517 6.73464 5.88418 6.17563 6.57668 6.17563C7.26918 6.17563 7.82819 6.73464 7.82819 7.42714C7.82819 8.11964 7.26918 8.67865 6.57668 8.67865Z" fill="black"/>
</svg>
