<svg width="24" height="25" viewBox="0 0 24 25" fill="none" xmlns="http://www.w3.org/2000/svg">
<path d="M11 18.1713C11 19.2713 10.1 20.1713 9 20.1713C7.9 20.1713 7 19.2713 7 18.1713C7 17.0713 7.9 16.1713 9 16.1713C10.1 16.1713 11 17.0713 11 18.1713ZM9 10.1713C7.9 10.1713 7 11.0713 7 12.1713C7 13.2713 7.9 14.1713 9 14.1713C10.1 14.1713 11 13.2713 11 12.1713C11 11.0713 10.1 10.1713 9 10.1713ZM9 4.17126C7.9 4.17126 7 5.07126 7 6.17126C7 7.27126 7.9 8.17126 9 8.17126C10.1 8.17126 11 7.27126 11 6.17126C11 5.07126 10.1 4.17126 9 4.17126ZM15 8.17126C16.1 8.17126 17 7.27126 17 6.17126C17 5.07126 16.1 4.17126 15 4.17126C13.9 4.17126 13 5.07126 13 6.17126C13 7.27126 13.9 8.17126 15 8.17126ZM15 10.1713C13.9 10.1713 13 11.0713 13 12.1713C13 13.2713 13.9 14.1713 15 14.1713C16.1 14.1713 17 13.2713 17 12.1713C17 11.0713 16.1 10.1713 15 10.1713ZM15 16.1713C13.9 16.1713 13 17.0713 13 18.1713C13 19.2713 13.9 20.1713 15 20.1713C16.1 20.1713 17 19.2713 17 18.1713C17 17.0713 16.1 16.1713 15 16.1713Z" fill="black"/>
</svg>
