<svg width="25" height="25" viewBox="0 0 25 25" fill="none" xmlns="http://www.w3.org/2000/svg">
<path d="M12.5908 3.61047C7.62082 3.61047 3.59082 7.64047 3.59082 12.6105C3.59082 17.5805 7.62082 21.6105 12.5908 21.6105C13.4208 21.6105 14.0908 20.9405 14.0908 20.1105C14.0908 19.7205 13.9408 19.3705 13.7008 19.1005C13.4708 18.8405 13.3208 18.4905 13.3208 18.1105C13.3208 17.2805 13.9908 16.6105 14.8208 16.6105H16.5908C19.3508 16.6105 21.5908 14.3705 21.5908 11.6105C21.5908 7.19047 17.5608 3.61047 12.5908 3.61047ZM7.09082 12.6105C6.26082 12.6105 5.59082 11.9405 5.59082 11.1105C5.59082 10.2805 6.26082 9.61047 7.09082 9.61047C7.92082 9.61047 8.59082 10.2805 8.59082 11.1105C8.59082 11.9405 7.92082 12.6105 7.09082 12.6105ZM10.0908 8.61047C9.26082 8.61047 8.59082 7.94047 8.59082 7.11047C8.59082 6.28047 9.26082 5.61047 10.0908 5.61047C10.9208 5.61047 11.5908 6.28047 11.5908 7.11047C11.5908 7.94047 10.9208 8.61047 10.0908 8.61047ZM15.0908 8.61047C14.2608 8.61047 13.5908 7.94047 13.5908 7.11047C13.5908 6.28047 14.2608 5.61047 15.0908 5.61047C15.9208 5.61047 16.5908 6.28047 16.5908 7.11047C16.5908 7.94047 15.9208 8.61047 15.0908 8.61047ZM18.0908 12.6105C17.2608 12.6105 16.5908 11.9405 16.5908 11.1105C16.5908 10.2805 17.2608 9.61047 18.0908 9.61047C18.9208 9.61047 19.5908 10.2805 19.5908 11.1105C19.5908 11.9405 18.9208 12.6105 18.0908 12.6105Z" fill="black"/>
</svg>
