<svg width="24" height="25" viewBox="0 0 24 25" fill="none" xmlns="http://www.w3.org/2000/svg">
<path d="M7.2 17.6935C8.96731 17.6935 10.4 16.2608 10.4 14.4935C10.4 12.7262 8.96731 11.2935 7.2 11.2935C5.43269 11.2935 4 12.7262 4 14.4935C4 16.2608 5.43269 17.6935 7.2 17.6935Z" fill="black"/>
<path d="M14.8 20.0935C15.9046 20.0935 16.8 19.1981 16.8 18.0935C16.8 16.9889 15.9046 16.0935 14.8 16.0935C13.6955 16.0935 12.8 16.9889 12.8 18.0935C12.8 19.1981 13.6955 20.0935 14.8 20.0935Z" fill="black"/>
<path d="M15.1999 13.6935C17.8509 13.6935 19.9999 11.5445 19.9999 8.89351C19.9999 6.24254 17.8509 4.09351 15.1999 4.09351C12.5489 4.09351 10.3999 6.24254 10.3999 8.89351C10.3999 11.5445 12.5489 13.6935 15.1999 13.6935Z" fill="black"/>
</svg>
