<svg width="24" height="25" viewBox="0 0 24 25" fill="none" xmlns="http://www.w3.org/2000/svg">
<path d="M7.2 18.5173C8.96731 18.5173 10.4 17.0846 10.4 15.3173C10.4 13.55 8.96731 12.1173 7.2 12.1173C5.43269 12.1173 4 13.55 4 15.3173C4 17.0846 5.43269 18.5173 7.2 18.5173Z" fill="black"/>
<path d="M14.8 20.9173C15.9046 20.9173 16.8 20.0219 16.8 18.9173C16.8 17.8127 15.9046 16.9173 14.8 16.9173C13.6954 16.9173 12.8 17.8127 12.8 18.9173C12.8 20.0219 13.6954 20.9173 14.8 20.9173Z" fill="black"/>
<path d="M15.2 14.5173C17.851 14.5173 20 12.3683 20 9.7173C20 7.06633 17.851 4.9173 15.2 4.9173C12.5491 4.9173 10.4 7.06633 10.4 9.7173C10.4 12.3683 12.5491 14.5173 15.2 14.5173Z" fill="black"/>
</svg>
