<svg width="24" height="24" viewBox="0 0 24 24" fill="none" xmlns="http://www.w3.org/2000/svg">
<g clip-path="url(#clip0)">
<path d="M22.0645 2.90323H4.25806C3.18958 2.90455 2.3239 3.77023 2.32258 4.83871V6.3871H1.93548C0.866998 6.38842 0.00132309 7.2541 0 8.32258V19.1613C0.00132309 20.2298 0.866998 21.0955 1.93548 21.0968H19.7419C20.8104 21.0955 21.6761 20.2298 21.6774 19.1613V17.6129H22.0645C23.133 17.6116 23.9987 16.7459 24 15.6774V4.83871C23.9987 3.77023 23.133 2.90455 22.0645 2.90323ZM1.93548 7.16129H19.7419C20.3833 7.16129 20.9032 7.68126 20.9032 8.32258V9.48387H0.774194V8.32258C0.774194 7.68126 1.29417 7.16129 1.93548 7.16129ZM20.9032 19.1613C20.9032 19.8026 20.3833 20.3226 19.7419 20.3226H1.93548C1.29417 20.3226 0.774194 19.8026 0.774194 19.1613V13.3548H20.9032V19.1613ZM23.2258 15.6774C23.2258 16.3187 22.7058 16.8387 22.0645 16.8387H21.6774V8.32258C21.6761 7.2541 20.8104 6.38842 19.7419 6.3871H3.09677V4.83871C3.09677 4.19739 3.61675 3.67742 4.25806 3.67742H22.0645C22.7058 3.67742 23.2258 4.19739 23.2258 4.83871V15.6774Z" fill="#444252" fill-opacity="0.9"/>
</g>
<defs>
<clipPath id="clip0">
<rect width="24" height="24" fill="white"/>
</clipPath>
</defs>
</svg>
