<svg width="60" height="59" viewBox="0 0 60 59" fill="none" xmlns="http://www.w3.org/2000/svg">
<g clip-path="url(#clip0)">
<path d="M53.75 10.5078H6.24996C2.805 10.5078 0 13.2193 0 16.5496V43.1329C0 46.4631 2.805 49.1745 6.24996 49.1745H53.7499C57.1949 49.1745 59.9999 46.4631 59.9999 43.1329V16.5496C60 13.2193 57.195 10.5078 53.75 10.5078ZM57.5 43.1328C57.5 45.1314 55.8176 46.7578 53.75 46.7578H6.24996C4.18242 46.7578 2.49996 45.1314 2.49996 43.1328V16.5496C2.49996 14.5509 4.18242 12.9246 6.24996 12.9246H53.7499C55.8175 12.9246 57.4999 14.5509 57.4999 16.5496V43.1328H57.5Z" fill="black"/>
<path d="M58.75 17.7581H1.25004C0.560039 17.7581 0 18.2994 0 18.9664V26.2164C0 26.8834 0.560039 27.4248 1.25004 27.4248H58.7501C59.4401 27.4248 60.0001 26.8834 60.0001 26.2164V18.9664C60 18.2994 59.44 17.7581 58.75 17.7581ZM57.5 25.0081H2.49996V20.1747H57.4999V25.0081H57.5Z" fill="black"/>
<path d="M23.75 34.6748H8.75004C8.06004 34.6748 7.5 35.2162 7.5 35.8832C7.5 36.5502 8.06004 37.0914 8.75004 37.0914H23.75C24.44 37.0914 25.0001 36.5501 25.0001 35.8831C25.0001 35.2161 24.44 34.6748 23.75 34.6748Z" fill="black"/>
<path d="M23.75 39.5078H8.75004C8.06004 39.5078 7.5 40.0492 7.5 40.7162C7.5 41.3832 8.06004 41.9245 8.75004 41.9245H23.75C24.44 41.9245 25.0001 41.3832 25.0001 40.7162C25 40.0492 24.44 39.5078 23.75 39.5078Z" fill="black"/>
<path d="M48.75 32.2578H46.25C44.1825 32.2578 42.5 33.8842 42.5 35.8828V38.2994C42.5 40.2981 44.1825 41.9244 46.25 41.9244H48.75C50.8175 41.9244 52.5 40.2981 52.5 38.2994V35.8828C52.5 33.8843 50.8175 32.2578 48.75 32.2578ZM50 38.2995C50 38.9665 49.44 39.5079 48.75 39.5079H46.25C45.56 39.5079 45 38.9665 45 38.2995V35.8829C45 35.2159 45.56 34.6746 46.25 34.6746H48.75C49.44 34.6746 50 35.2159 50 35.8829V38.2995Z" fill="black"/>
</g>
<defs>
<clipPath id="clip0">
<rect width="60" height="58" fill="white" transform="translate(0 0.841309)"/>
</clipPath>
</defs>
</svg>
