<svg width="23" height="21" viewBox="0 0 23 21" fill="none" xmlns="http://www.w3.org/2000/svg">
<path d="M16.5448 0.541656C14.1045 0.541656 12.089 2.80826 11.2739 3.87801C10.4589 2.80826 8.44336 0.541656 6.00308 0.541656C2.84402 0.541656 0.273926 3.44609 0.273926 7.01563C0.273926 8.9631 1.04693 10.7781 2.39998 12.0202C2.41966 12.0542 2.44385 12.0855 2.47204 12.1137L10.9503 20.5745C11.0398 20.6636 11.1567 20.7083 11.2739 20.7083C11.3912 20.7083 11.5084 20.6636 11.598 20.5741L20.3582 11.817L20.4487 11.7292C20.5203 11.6616 20.591 11.5931 20.6702 11.5054C20.7033 11.4728 20.7306 11.436 20.7517 11.3962C21.7342 10.1931 22.2739 8.64126 22.2739 7.01563C22.2739 3.44609 19.7039 0.541656 16.5448 0.541656ZM19.989 10.8806C19.9764 10.8954 19.9648 10.911 19.9545 10.9271C19.9115 10.9764 19.8645 11.0198 19.818 11.0641L11.2735 19.6023L3.22446 11.5694C3.19851 11.5184 3.16224 11.4718 3.11794 11.4329C1.89286 10.3632 1.19058 8.75316 1.19058 7.01563C1.19058 3.9514 3.34933 1.45835 6.00308 1.45835C8.62688 1.45835 10.8662 4.88064 10.8885 4.9151C11.0578 5.17648 11.4901 5.17648 11.6593 4.9151C11.6817 4.88064 13.921 1.45835 16.5448 1.45835C19.1985 1.45835 21.3573 3.95144 21.3573 7.01563C21.3573 8.45955 20.8712 9.83232 19.989 10.8806Z" fill="#444252"/>
</svg>
