<svg width="21" height="21" viewBox="0 0 21 21" fill="none" xmlns="http://www.w3.org/2000/svg">
<g clip-path="url(#clip0)">
<path d="M10.4723 16.4829C9.75975 16.4829 9.18201 17.0607 9.18201 17.7732C9.18201 18.4858 9.75975 19.0636 10.4723 19.0636C11.1849 19.0636 11.7627 18.4858 11.7627 17.7732C11.7627 17.0607 11.1849 16.4829 10.4723 16.4829ZM10.4723 18.4184C10.116 18.4184 9.82717 18.1295 9.82717 17.7732C9.82717 17.4169 10.116 17.1281 10.4723 17.1281C10.8286 17.1281 11.1175 17.4169 11.1175 17.7732C11.1175 18.1295 10.8286 18.4184 10.4723 18.4184Z" fill="#444252" fill-opacity="0.9"/>
<path d="M15.3109 0.0312805H5.63351C5.09908 0.0312805 4.66577 0.464591 4.66577 0.999022V19.0635C4.66577 19.598 5.09908 20.0313 5.63351 20.0313H15.3109C15.8454 20.0313 16.2787 19.598 16.2787 19.0635V0.999022C16.2787 0.464591 15.8454 0.0312805 15.3109 0.0312805ZM5.31093 3.25709H15.6335V15.5152H5.31093V3.25709ZM5.63351 0.676442H15.3109C15.4891 0.676442 15.6335 0.820879 15.6335 0.999022V2.61193H5.31093V0.999022C5.31093 0.820879 5.45537 0.676442 5.63351 0.676442ZM15.3109 19.3861H5.63351C5.45537 19.3861 5.31093 19.2417 5.31093 19.0635V16.1603H15.6335V19.0635C15.6335 19.2417 15.4891 19.3861 15.3109 19.3861Z" fill="#444252" fill-opacity="0.9"/>
</g>
<defs>
<clipPath id="clip0">
<rect width="20" height="20" fill="white" transform="translate(0.47229 0.0312805)"/>
</clipPath>
</defs>
</svg>
