<svg width="70" height="71" viewBox="0 0 70 71" fill="none" xmlns="http://www.w3.org/2000/svg">
<g clip-path="url(#clip0)">
<path d="M67.1929 17.3441C67.1929 17.0781 67.1339 16.8122 67.0157 16.561C66.7793 16.0587 66.3213 15.7189 65.8189 15.6155L35.724 1.0186C35.2364 0.782212 34.6602 0.782212 34.1727 1.0186L3.7822 15.7484C3.19123 16.0292 2.80711 16.6201 2.77756 17.285V17.2997C2.77756 17.3145 2.77756 17.3293 2.77756 17.3588V54.3238C2.77756 55.0034 3.16169 55.6239 3.7822 55.9194L34.1727 70.6492C34.1874 70.6492 34.1874 70.6492 34.2022 70.664C34.2465 70.6788 34.2909 70.6936 34.3352 70.7231C34.35 70.7231 34.3647 70.7379 34.3943 70.7379C34.4386 70.7527 34.4829 70.7674 34.5272 70.7822C34.542 70.7822 34.5568 70.797 34.5716 70.797C34.6159 70.8118 34.675 70.8118 34.7193 70.8265C34.7341 70.8265 34.7489 70.8265 34.7636 70.8265C34.8227 70.8265 34.8966 70.8413 34.9557 70.8413C35.0148 70.8413 35.0887 70.8413 35.1478 70.8265C35.1625 70.8265 35.1773 70.8265 35.1921 70.8265C35.2364 70.8265 35.2955 70.8118 35.3398 70.797C35.3546 70.797 35.3694 70.7822 35.3842 70.7822C35.4285 70.7674 35.4728 70.7527 35.5171 70.7379C35.5319 70.7379 35.5467 70.7231 35.5762 70.7231C35.6205 70.7083 35.6649 70.6936 35.7092 70.664C35.724 70.664 35.724 70.664 35.7387 70.6492L66.2178 55.8751C66.8236 55.5796 67.2225 54.9591 67.2225 54.2795V17.3884C67.1929 17.3736 67.1929 17.3588 67.1929 17.3441ZM34.9409 4.57917L61.298 17.3588L51.5914 22.0718L25.2343 9.29213L34.9409 4.57917ZM34.9409 30.1385L8.58381 17.3588L21.1714 11.2571L47.5285 24.0367L34.9409 30.1385ZM6.32336 20.2102L33.168 33.2263V66.217L6.32336 53.201V20.2102ZM36.7138 66.217V33.2263L49.3162 27.1098V35.7379C49.3162 36.713 50.114 37.5108 51.0891 37.5108C52.0642 37.5108 52.862 36.713 52.862 35.7379V25.3812L63.6471 20.1511V53.1419L36.7138 66.217Z" fill="black"/>
</g>
<defs>
<clipPath id="clip0">
<rect width="70" height="70" fill="white" transform="translate(0 0.841309)"/>
</clipPath>
</defs>
</svg>
