<svg width="23" height="24" viewBox="0 0 23 24" fill="none" xmlns="http://www.w3.org/2000/svg">
<g clip-path="url(#clip0)">
<path d="M22.8891 1.7929C22.7861 1.69259 22.634 1.66155 22.5001 1.71366L0.23417 10.3611C0.101831 10.4124 0.0110437 10.5355 0.0009363 10.677C-0.0091711 10.8186 0.0631979 10.9533 0.186823 11.0229L4.80114 13.6228L6.40265 21.4508C6.41262 21.5062 6.43513 21.5577 6.46743 21.6019C6.47066 21.6064 6.47331 21.6098 6.47601 21.6132C6.53243 21.6838 6.61244 21.7331 6.70569 21.748C6.7176 21.7499 6.72955 21.7512 6.74141 21.7519C6.74909 21.7524 6.75672 21.7526 6.76436 21.7526C6.83439 21.7526 6.90074 21.7327 6.9573 21.6975C6.97644 21.6856 6.99463 21.6719 7.01152 21.6564C7.01678 21.6515 7.02136 21.6472 7.02581 21.6426L10.4993 18.1603C10.6424 18.0168 10.6421 17.7843 10.4986 17.6412C10.355 17.498 10.1227 17.4984 9.97955 17.6419L7.25104 20.3774L7.8406 15.3284L16.1734 19.9021C16.2573 19.9479 16.3505 19.9577 16.436 19.9371C16.4454 19.9348 16.4539 19.9324 16.4624 19.9297C16.5468 19.9023 16.6208 19.8454 16.6679 19.7636C16.6703 19.7594 16.6724 19.7556 16.6745 19.7517C16.684 19.7336 16.6916 19.7158 16.6977 19.6977L22.9784 2.17963C23.0269 2.04433 22.992 1.89312 22.8891 1.7929ZM1.2233 10.7644L19.4226 3.69633L5.11402 12.9565L1.2233 10.7644ZM7.30967 14.458C7.27535 14.4856 7.24547 14.5197 7.22211 14.5599C7.21906 14.5651 7.21618 14.5704 7.2134 14.5758C7.19112 14.6188 7.17818 14.6643 7.17391 14.7099L6.66481 19.0699L5.53696 13.5572L17.8952 5.55919L7.30967 14.458ZM16.1497 19.0517L8.18578 14.6805L21.8287 3.21131L16.1497 19.0517Z" fill="#555555"/>
</g>
<defs>
<clipPath id="clip0">
<rect width="23" height="23" fill="white" transform="translate(0 0.220703)"/>
</clipPath>
</defs>
</svg>
