<svg width="23" height="21" viewBox="0 0 23 21" fill="none" xmlns="http://www.w3.org/2000/svg">
<path d="M22.5451 3.66835C22.4534 3.58102 22.3617 3.49365 22.1784 3.49365H4.76172L4.30337 1.2228C4.30337 1.0481 4.02837 0.873444 3.84502 0.873444H1.09502C0.820066 0.873403 0.636719 1.0481 0.636719 1.31012C0.636719 1.57215 0.820066 1.74685 1.09507 1.74685H3.47841L5.67841 12.4025C5.95341 13.8 7.32841 14.8481 8.79507 14.8481H19.3367C19.6117 14.8481 19.7951 14.6734 19.7951 14.4114C19.7951 14.1493 19.6117 13.9746 19.3367 13.9746H8.88672C8.15337 13.9746 7.42007 13.6253 7.05337 13.0139L20.4367 11.2671C20.6201 11.2671 20.8034 11.0924 20.8034 10.9177L22.6367 3.93037C22.6367 3.93037 22.6367 3.75568 22.5451 3.66835ZM19.9784 10.481L6.59502 12.1405L4.94502 4.27972H21.5367L19.9784 10.481Z" fill="#EC2F7F"/>
<path d="M8.42834 15.7215C7.14505 15.7215 6.13672 16.6822 6.13672 17.905C6.13672 19.1278 7.14505 20.0885 8.42834 20.0885C9.71168 20.0885 10.72 19.1277 10.72 17.905C10.72 16.6822 9.71168 15.7215 8.42834 15.7215ZM8.42834 19.2151C7.69501 19.2151 7.05336 18.6037 7.05336 17.905C7.05336 17.2063 7.69501 16.5949 8.42834 16.5949C9.16168 16.5949 9.80333 17.2063 9.80333 17.905C9.80333 18.6037 9.16168 19.2151 8.42834 19.2151Z" fill="#EC2F7F"/>
<path d="M17.5953 15.7215C16.312 15.7215 15.3037 16.6822 15.3037 17.905C15.3037 19.1278 16.312 20.0885 17.5953 20.0885C18.8787 20.0885 19.887 19.1277 19.887 17.905C19.887 16.6822 18.8786 15.7215 17.5953 15.7215ZM17.5953 19.2151C16.862 19.2151 16.2204 18.6037 16.2204 17.905C16.2204 17.2063 16.862 16.5949 17.5953 16.5949C18.3287 16.5949 18.9703 17.2063 18.9703 17.905C18.9703 18.6037 18.3286 19.2151 17.5953 19.2151Z" fill="#EC2F7F"/>
</svg>
