<svg width="23" height="21" viewBox="0 0 23 21" fill="none" xmlns="http://www.w3.org/2000/svg">
<path d="M22.5451 3.64485C22.4534 3.5532 22.3617 3.4615 22.1784 3.4615H4.76172L4.30337 1.0782C4.30337 0.894853 4.02837 0.711548 3.84502 0.711548H1.09502C0.820066 0.711505 0.636719 0.894853 0.636719 1.16985C0.636719 1.44485 0.820066 1.6282 1.09507 1.6282H3.47841L5.67841 12.8115C5.95341 14.2782 7.32841 15.3782 8.79507 15.3782H19.3367C19.6117 15.3782 19.7951 15.1949 19.7951 14.9199C19.7951 14.6449 19.6117 14.4615 19.3367 14.4615H8.88672C8.15337 14.4615 7.42007 14.0949 7.05337 13.4532L20.4367 11.6199C20.6201 11.6199 20.8034 11.4365 20.8034 11.2532L22.6367 3.91985C22.6367 3.91985 22.6367 3.7365 22.5451 3.64485ZM19.9784 10.7949L6.59502 12.5365L4.94502 4.2865H21.5367L19.9784 10.7949Z" fill="#444252"/>
<path d="M8.42837 16.2948C7.14507 16.2948 6.13672 17.3032 6.13672 18.5865C6.13672 19.8698 7.14507 20.8781 8.42837 20.8781C9.71172 20.8781 10.72 19.8698 10.72 18.5865C10.7201 17.3032 9.71172 16.2948 8.42837 16.2948ZM8.42837 19.9615C7.69502 19.9615 7.05337 19.3198 7.05337 18.5865C7.05337 17.8532 7.69502 17.2115 8.42837 17.2115C9.16172 17.2115 9.80337 17.8532 9.80337 18.5865C9.80337 19.3198 9.16172 19.9615 8.42837 19.9615Z" fill="#444252"/>
<path d="M17.5951 16.2948C16.3117 16.2948 15.3034 17.3032 15.3034 18.5865C15.3034 19.8698 16.3118 20.8781 17.5951 20.8781C18.8784 20.8781 19.8867 19.8698 19.8867 18.5865C19.8867 17.3032 18.8784 16.2948 17.5951 16.2948ZM17.5951 19.9615C16.8617 19.9615 16.2201 19.3198 16.2201 18.5865C16.2201 17.8532 16.8617 17.2115 17.5951 17.2115C18.3284 17.2115 18.9701 17.8532 18.9701 18.5865C18.9701 19.3198 18.3284 19.9615 17.5951 19.9615Z" fill="#444252"/>
</svg>
