<svg width="19" height="21" viewBox="0 0 19 21" fill="none" xmlns="http://www.w3.org/2000/svg">
<path d="M1.96261 16.5815L1.9624 16.5817C1.66203 16.8311 1.48883 17.1978 1.48883 17.5899V20.0487C1.48883 20.2905 1.29571 20.4836 1.05393 20.4836C0.811638 20.4836 0.619562 20.2902 0.623926 20.0545H0.623934V20.0536V17.5948C0.623934 16.9385 0.911267 16.3259 1.41378 15.9143L1.41383 15.9143C3.46684 14.2279 5.68188 13.0494 6.4251 12.6729L6.45251 12.659V12.6283V9.60624V9.58348L6.43535 9.56854C5.99076 9.18131 5.73251 8.61711 5.73251 8.0193V4.4291C5.73251 2.40932 7.37547 0.761548 9.40006 0.761548H10.1739C12.1937 0.761548 13.8415 2.40451 13.8415 4.4291V8.0193C13.8415 8.62195 13.5833 9.18127 13.1386 9.56854L13.1215 9.58348V9.60624V12.6283V12.659L13.1489 12.6729C13.8921 13.0494 16.1072 14.2279 18.1602 15.9143L18.1602 15.9143C18.6627 16.3259 18.9501 16.9385 18.9501 17.5948V20.0536C18.9501 20.2954 18.7569 20.4885 18.5152 20.4885C18.2734 20.4885 18.0803 20.2954 18.0803 20.0536V17.5948C18.0803 17.2027 17.9071 16.836 17.6067 16.5866L17.6065 16.5864C15.4176 14.7852 13.0429 13.5832 12.5859 13.3621L12.5857 13.362C12.378 13.2626 12.2517 13.0599 12.2517 12.8291V9.36624C12.2517 9.22073 12.3221 9.08516 12.4442 9.00667L12.4443 9.00669L12.4455 9.00581C12.7721 8.7813 12.9717 8.41348 12.9717 8.0193V4.4291C12.9717 2.88802 11.715 1.63134 10.1739 1.63134H9.40006C7.85897 1.63134 6.6023 2.88802 6.6023 4.4291V8.01441C6.6023 8.41291 6.79658 8.78137 7.1292 9.00141C7.24768 9.08047 7.3223 9.21676 7.3223 9.36134V12.8242C7.3223 13.0503 7.1958 13.2578 6.98828 13.357L6.98769 13.3573C6.53118 13.5831 4.15648 14.7803 1.96261 16.5815Z" fill="#444252" stroke="white" stroke-width="0.1"/>
</svg>
